<svg width="20" height="18" viewBox="0 0 20 18" fill="none" xmlns="http://www.w3.org/2000/svg">
<path d="M8.03398 15.6999H8.02344C5.31998 13.4885 2.42882 11.0852 1.14973 8.25216L1.14976 8.25214L1.14724 8.24674C0.731133 7.35365 0.510476 6.38203 0.500007 5.39683C0.497853 4.0816 1.02559 2.82092 1.96413 1.89945C2.90315 0.977503 4.17413 0.47294 5.48982 0.499799L5.48982 0.499888L5.49923 0.499903C6.58379 0.501616 7.645 0.815006 8.55649 1.40275C8.95326 1.66037 9.31226 1.97194 9.62316 2.3285L9.99824 2.75866L10.3753 2.33027C10.6887 1.97423 11.0487 1.66205 11.4455 1.40215C12.3563 0.814677 13.4169 0.501481 14.5008 0.499903V0.499993L14.5102 0.499799C15.8259 0.47294 17.0969 0.977503 18.0359 1.89945C18.9745 2.82093 19.5022 4.08162 19.5 5.39685C19.4903 6.38374 19.2696 7.35713 18.8528 8.25175L18.8528 8.25173L18.8503 8.25716C17.5498 11.1377 14.5834 13.5733 11.8417 15.811L11.8337 15.8175L11.8337 15.8174L11.8302 15.8203C11.1889 16.3428 10.571 16.8475 10.0042 17.3392C9.48483 16.8906 8.92168 16.4285 8.33856 15.9499C8.28331 15.9046 8.22788 15.8591 8.1723 15.8135L8.03398 15.6999ZM2.65267 2.63225L2.65266 2.63224L2.64965 2.6352C1.90744 3.36425 1.49264 4.36311 1.49994 5.40342L1.49999 5.40731C1.51245 6.24842 1.70294 7.07738 2.05902 7.83954L2.05892 7.83959L2.06373 7.84934C2.73018 9.19854 3.62904 10.4198 4.71912 11.4571C5.72748 12.474 6.88142 13.4533 7.8677 14.2675L7.86802 14.2677C8.14178 14.4934 8.42038 14.7209 8.69795 14.9475L8.69864 14.9481L8.69878 14.9482L8.87364 15.0911L8.8738 15.0912C9.14058 15.309 9.41515 15.5339 9.68036 15.7544L10.0172 16.0345L10.2215 15.8459H10.225L10.2994 15.7839H10.3171L10.4592 15.6576L10.4609 15.6561L11.1172 15.1174L11.1175 15.1172L11.2899 14.9755C11.2902 14.9753 11.2904 14.9751 11.2907 14.9748C11.5716 14.7459 11.8502 14.5184 12.124 14.2927L12.1243 14.2925C13.1101 13.4787 14.2655 12.5001 15.2743 11.4778C16.3644 10.441 17.2631 9.22017 17.9293 7.87132L17.9294 7.87136L17.9333 7.86316C18.2959 7.09422 18.4891 6.25638 18.5 5.40631L18.5001 5.40219C18.5048 4.36511 18.0902 3.37012 17.3505 2.64325L17.3485 2.64137C16.5863 1.90043 15.5625 1.49027 14.4996 1.49988C13.2205 1.49034 11.9981 2.02704 11.1394 2.97529L11.1393 2.97522L11.1324 2.98319L10 4.28804L8.86765 2.98319L8.86774 2.98312L8.86065 2.97529C8.0021 2.02718 6.77987 1.4905 5.50101 1.49988C4.43965 1.48798 3.41626 1.89478 2.65267 2.63225Z" stroke="#CBD3E9"/>
</svg>
