<svg width="135" height="21" viewBox="0 0 135 21" fill="none" xmlns="http://www.w3.org/2000/svg">
<path d="M7.28992 6.19481V8.27792H6.63147V6.79806H0.800809L0.791267 8.27792H0.132812L0.142355 6.19481H0.476354C0.915323 6.16967 1.22069 5.8272 1.39246 5.16739C1.56423 4.50129 1.66921 3.5587 1.70738 2.33962L1.78372 0.199951H6.28793V6.19481H7.28992ZM2.3372 2.40561C2.30539 3.41103 2.22587 4.24051 2.09863 4.89403C1.97776 5.54128 1.771 5.97487 1.47835 6.19481H5.5913V0.803207H2.39446L2.3372 2.40561Z" fill="#8C98B7"/>
<path d="M13.0383 4.52643H8.83942C8.87759 5.04171 9.07799 5.45959 9.44062 5.78007C9.80325 6.09426 10.2613 6.25136 10.8148 6.25136C11.1265 6.25136 11.4128 6.19795 11.6736 6.09112C11.9345 5.97801 12.1603 5.81463 12.3512 5.60098L12.7329 6.03457C12.5102 6.29849 12.2303 6.49958 11.8931 6.63782C11.5623 6.77607 11.1965 6.84519 10.7957 6.84519C10.2804 6.84519 9.82233 6.73836 9.42154 6.52471C9.0271 6.30477 8.71855 6.00315 8.49588 5.61983C8.27322 5.23651 8.16188 4.80292 8.16188 4.31906C8.16188 3.8352 8.26686 3.40161 8.4768 3.01829C8.6931 2.63497 8.98575 2.33648 9.35474 2.12283C9.73009 1.90918 10.15 1.80235 10.6144 1.80235C11.0788 1.80235 11.4955 1.90918 11.8645 2.12283C12.2335 2.33648 12.5229 2.63497 12.7329 3.01829C12.9428 3.39532 13.0478 3.82891 13.0478 4.31906L13.0383 4.52643ZM10.6144 2.37733C10.1309 2.37733 9.72372 2.53128 9.39291 2.8392C9.06845 3.14082 8.88396 3.53671 8.83942 4.02686H12.3989C12.3544 3.53671 12.1667 3.14082 11.8359 2.8392C11.5114 2.53128 11.1043 2.37733 10.6144 2.37733Z" fill="#8C98B7"/>
<path d="M18.7687 1.84005V6.79806H18.0912V2.43388H15.6864L15.6196 3.65925C15.5687 4.68981 15.4478 5.48158 15.257 6.03457C15.0661 6.58755 14.7257 6.86404 14.2359 6.86404C14.1023 6.86404 13.94 6.83891 13.7492 6.78864L13.7969 6.21366C13.9114 6.23879 13.9909 6.25136 14.0355 6.25136C14.2963 6.25136 14.4935 6.13197 14.6271 5.89318C14.7607 5.65439 14.8498 5.35905 14.8943 5.00715C14.9389 4.65525 14.977 4.19024 15.0088 3.61212L15.0947 1.84005H18.7687Z" fill="#8C98B7"/>
<path d="M22.6423 1.80235C23.2975 1.80235 23.8001 1.96573 24.15 2.29249C24.4999 2.61297 24.6749 3.09055 24.6749 3.72523V6.79806H24.026V6.02514C23.8733 6.28278 23.6474 6.48387 23.3484 6.6284C23.0558 6.77293 22.7059 6.84519 22.2987 6.84519C21.7389 6.84519 21.2935 6.71323 20.9627 6.4493C20.6319 6.18538 20.4665 5.83662 20.4665 5.40303C20.4665 4.98201 20.6192 4.64268 20.9246 4.38504C21.2363 4.1274 21.7293 3.99858 22.4037 3.99858H23.9973V3.69695C23.9973 3.26964 23.8765 2.94602 23.6347 2.72608C23.393 2.49986 23.0399 2.38675 22.5755 2.38675C22.2574 2.38675 21.952 2.44017 21.6593 2.54699C21.3667 2.64754 21.1154 2.78892 20.9055 2.97116L20.6001 2.47159C20.8546 2.25793 21.1599 2.09455 21.5162 1.98144C21.8725 1.86205 22.2478 1.80235 22.6423 1.80235ZM22.4037 6.31734C22.7854 6.31734 23.113 6.23251 23.3866 6.06284C23.6602 5.88689 23.8637 5.63554 23.9973 5.30877V4.49815H22.4228C21.5639 4.49815 21.1345 4.79349 21.1345 5.38418C21.1345 5.67324 21.2458 5.9026 21.4685 6.07227C21.6912 6.23565 22.0029 6.31734 22.4037 6.31734Z" fill="#8C98B7"/>
<path d="M31.0885 4.52643H26.8896C26.9278 5.04171 27.1282 5.45959 27.4908 5.78007C27.8534 6.09426 28.3115 6.25136 28.865 6.25136C29.1767 6.25136 29.463 6.19795 29.7238 6.09112C29.9847 5.97801 30.2105 5.81463 30.4014 5.60098L30.7831 6.03457C30.5604 6.29849 30.2805 6.49958 29.9433 6.63782C29.6125 6.77607 29.2467 6.84519 28.8459 6.84519C28.3306 6.84519 27.8725 6.73836 27.4717 6.52471C27.0773 6.30477 26.7687 6.00315 26.5461 5.61983C26.3234 5.23651 26.2121 4.80292 26.2121 4.31906C26.2121 3.8352 26.317 3.40161 26.527 3.01829C26.7433 2.63497 27.0359 2.33648 27.4049 2.12283C27.7803 1.90918 28.2002 1.80235 28.6646 1.80235C29.129 1.80235 29.5457 1.90918 29.9147 2.12283C30.2837 2.33648 30.5731 2.63497 30.7831 3.01829C30.993 3.39532 31.098 3.82891 31.098 4.31906L31.0885 4.52643ZM28.6646 2.37733C28.1811 2.37733 27.7739 2.53128 27.4431 2.8392C27.1186 3.14082 26.9342 3.53671 26.8896 4.02686H30.4491C30.4046 3.53671 30.2169 3.14082 29.8861 2.8392C29.5616 2.53128 29.1544 2.37733 28.6646 2.37733Z" fill="#8C98B7"/>
<path d="M38.4292 1.84005V6.79806H37.8089V2.8769L35.7763 6.19481H35.4709L33.4383 2.86747V6.79806H32.818V1.84005H33.5051L35.6331 5.41246L37.7994 1.84005H38.4292Z" fill="#8C98B7"/>
<path d="M43.2952 1.84005H43.9727V5.78007L47.3222 1.84005H47.9234V6.79806H47.2459V2.85805L43.9059 6.79806H43.2952V1.84005Z" fill="#8C98B7"/>
<path d="M50.0854 1.84005H50.7629V4.03628H53.9216V1.84005H54.5991V6.79806H53.9216V4.61126H50.7629V6.79806H50.0854V1.84005Z" fill="#8C98B7"/>
<path d="M61.6406 6.21366V7.99515H61.0012V6.79806H56.5066V7.99515H55.8672V6.21366H56.1535C56.4907 6.19481 56.7197 5.94973 56.8406 5.47844C56.9614 5.00715 57.0441 4.34733 57.0887 3.49901L57.1555 1.84005H60.8581V6.21366H61.6406ZM57.709 3.53671C57.6772 4.24051 57.6167 4.82177 57.5276 5.2805C57.4386 5.73294 57.2795 6.04399 57.0505 6.21366H60.1806V2.43388H57.7662L57.709 3.53671Z" fill="#8C98B7"/>
<path d="M63.1812 1.84005H63.8588V5.78007L67.2083 1.84005H67.8095V6.79806H67.132V2.85805L63.792 6.79806H63.1812V1.84005Z" fill="#8C98B7"/>
<path d="M73.1683 4.23422C73.849 4.39132 74.1894 4.79663 74.1894 5.45016C74.1894 5.88375 74.0272 6.2168 73.7027 6.4493C73.3782 6.68181 72.8947 6.79806 72.2522 6.79806H69.9715V1.84005H72.1854C72.758 1.84005 73.2065 1.95002 73.5309 2.16996C73.8554 2.3899 74.0176 2.70409 74.0176 3.11255C74.0176 3.38275 73.9413 3.61526 73.7886 3.81006C73.6423 3.99858 73.4355 4.13997 73.1683 4.23422ZM70.6299 4.04571H72.1377C72.5257 4.04571 72.8216 3.97344 73.0252 3.82891C73.2351 3.68438 73.3401 3.47387 73.3401 3.19738C73.3401 2.92089 73.2351 2.71352 73.0252 2.57527C72.8216 2.43702 72.5257 2.3679 72.1377 2.3679H70.6299V4.04571ZM72.2236 6.27021C72.6562 6.27021 72.9806 6.20109 73.1969 6.06284C73.4132 5.9246 73.5214 5.7078 73.5214 5.41246C73.5214 5.11711 73.4228 4.90032 73.2256 4.76207C73.0283 4.61754 72.7166 4.54528 72.2904 4.54528H70.6299V6.27021H72.2236Z" fill="#8C98B7"/>
<path d="M75.9975 1.84005H76.675V5.78007L80.0246 1.84005H80.6258V6.79806H79.9482V2.85805L76.6082 6.79806H75.9975V1.84005Z" fill="#8C98B7"/>
<path d="M87.6832 6.21366V7.99515H87.0438V6.79806H82.5492V7.99515H81.9098V6.21366H82.1961C82.5333 6.19481 82.7623 5.94973 82.8832 5.47844C83.004 5.00715 83.0867 4.34733 83.1313 3.49901L83.1981 1.84005H86.9007V6.21366H87.6832ZM83.7516 3.53671C83.7197 4.24051 83.6593 4.82177 83.5702 5.2805C83.4812 5.73294 83.3221 6.04399 83.0931 6.21366H86.2231V2.43388H83.8088L83.7516 3.53671Z" fill="#8C98B7"/>
<path d="M93.4895 1.84005L90.9797 7.39189C90.7761 7.8569 90.5407 8.18681 90.2735 8.38161C90.0063 8.57641 89.6851 8.67381 89.3097 8.67381C89.068 8.67381 88.8421 8.63611 88.6322 8.5607C88.4222 8.48529 88.2409 8.37218 88.0882 8.22137L88.4031 7.7218C88.6576 7.97315 88.963 8.09883 89.3192 8.09883C89.5483 8.09883 89.7423 8.03599 89.9014 7.91031C90.0668 7.78464 90.2195 7.57098 90.3594 7.26935L90.5789 6.78864L88.3363 1.84005H89.0425L90.932 6.05342L92.8215 1.84005H93.4895Z" fill="#8C98B7"/>
<path d="M96.3434 1.80235C96.9987 1.80235 97.5013 1.96573 97.8512 2.29249C98.2011 2.61297 98.376 3.09055 98.376 3.72523V6.79806H97.7271V6.02514C97.5744 6.28278 97.3486 6.48387 97.0496 6.6284C96.7569 6.77293 96.407 6.84519 95.9999 6.84519C95.44 6.84519 94.9947 6.71323 94.6639 6.4493C94.3331 6.18538 94.1676 5.83662 94.1676 5.40303C94.1676 4.98201 94.3203 4.64268 94.6257 4.38504C94.9374 4.1274 95.4305 3.99858 96.1048 3.99858H97.6985V3.69695C97.6985 3.26964 97.5776 2.94602 97.3359 2.72608C97.0941 2.49986 96.741 2.38675 96.2766 2.38675C95.9585 2.38675 95.6531 2.44017 95.3605 2.54699C95.0679 2.64754 94.8166 2.78892 94.6066 2.97116L94.3013 2.47159C94.5557 2.25793 94.8611 2.09455 95.2174 1.98144C95.5736 1.86205 95.949 1.80235 96.3434 1.80235ZM96.1048 6.31734C96.4866 6.31734 96.8142 6.23251 97.0877 6.06284C97.3613 5.88689 97.5649 5.63554 97.6985 5.30877V4.49815H96.1239C95.2651 4.49815 94.8356 4.79349 94.8356 5.38418C94.8356 5.67324 94.947 5.9026 95.1696 6.07227C95.3923 6.23565 95.704 6.31734 96.1048 6.31734Z" fill="#8C98B7"/>
<path d="M104.503 1.84005V6.79806H103.826V2.43388H101.421L101.354 3.65925C101.303 4.68981 101.182 5.48158 100.992 6.03457C100.801 6.58755 100.46 6.86404 99.9705 6.86404C99.8369 6.86404 99.6747 6.83891 99.4838 6.78864L99.5315 6.21366C99.646 6.23879 99.7256 6.25136 99.7701 6.25136C100.031 6.25136 100.228 6.13197 100.362 5.89318C100.495 5.65439 100.584 5.35905 100.629 5.00715C100.673 4.65525 100.712 4.19024 100.743 3.61212L100.829 1.84005H104.503Z" fill="#8C98B7"/>
<path d="M108.806 3.59327C109.436 3.59955 109.913 3.7378 110.238 4.008C110.569 4.27821 110.734 4.66781 110.734 5.17681C110.734 5.70466 110.556 6.10997 110.2 6.39275C109.85 6.67553 109.341 6.81377 108.673 6.80749L106.65 6.79806V1.84005H107.327V3.57441L108.806 3.59327ZM108.635 6.29849C109.099 6.30477 109.449 6.21366 109.684 6.02514C109.926 5.83034 110.047 5.54756 110.047 5.17681C110.047 4.81234 109.929 4.54214 109.694 4.36619C109.458 4.19024 109.105 4.09912 108.635 4.09284L107.327 4.07398V6.27964L108.635 6.29849Z" fill="#8C98B7"/>
<path d="M112.247 1.84005H112.925V4.03628H116.083V1.84005H116.761V6.79806H116.083V4.61126H112.925V6.79806H112.247V1.84005Z" fill="#8C98B7"/>
<path d="M121.016 3.59327C121.646 3.59955 122.126 3.7378 122.457 4.008C122.787 4.27821 122.953 4.66781 122.953 5.17681C122.953 5.70466 122.775 6.10997 122.419 6.39275C122.062 6.67553 121.553 6.81377 120.892 6.80749L118.907 6.79806V1.84005H119.584V3.57441L121.016 3.59327ZM123.793 1.84005H124.47V6.79806H123.793V1.84005ZM120.853 6.29849C121.318 6.30477 121.668 6.21366 121.903 6.02514C122.145 5.83034 122.266 5.54756 122.266 5.17681C122.266 4.81234 122.148 4.54214 121.913 4.36619C121.677 4.19024 121.324 4.09912 120.853 4.09284L119.584 4.07398V6.27964L120.853 6.29849Z" fill="#8C98B7"/>
<path d="M131.009 4.52643H126.81C126.849 5.04171 127.049 5.45959 127.412 5.78007C127.774 6.09426 128.232 6.25136 128.786 6.25136C129.098 6.25136 129.384 6.19795 129.645 6.09112C129.905 5.97801 130.131 5.81463 130.322 5.60098L130.704 6.03457C130.481 6.29849 130.201 6.49958 129.864 6.63782C129.533 6.77607 129.167 6.84519 128.767 6.84519C128.251 6.84519 127.793 6.73836 127.393 6.52471C126.998 6.30477 126.69 6.00315 126.467 5.61983C126.244 5.23651 126.133 4.80292 126.133 4.31906C126.133 3.8352 126.238 3.40161 126.448 3.01829C126.664 2.63497 126.957 2.33648 127.326 2.12283C127.701 1.90918 128.121 1.80235 128.585 1.80235C129.05 1.80235 129.467 1.90918 129.835 2.12283C130.204 2.33648 130.494 2.63497 130.704 3.01829C130.914 3.39532 131.019 3.82891 131.019 4.31906L131.009 4.52643ZM128.585 2.37733C128.102 2.37733 127.695 2.53128 127.364 2.8392C127.039 3.14082 126.855 3.53671 126.81 4.02686H130.37C130.325 3.53671 130.138 3.14082 129.807 2.8392C129.482 2.53128 129.075 2.37733 128.585 2.37733Z" fill="#8C98B7"/>
<path d="M2.71891 14.1285C3.37419 14.1285 3.87678 14.2919 4.22668 14.6186C4.57658 14.9391 4.75153 15.4167 4.75153 16.0514V19.1242H4.10262V18.3513C3.94994 18.6089 3.72409 18.81 3.42508 18.9545C3.13244 19.0991 2.78253 19.1713 2.37537 19.1713C1.81553 19.1713 1.3702 19.0394 1.03938 18.7754C0.708562 18.5115 0.543153 18.1628 0.543153 17.7292C0.543153 17.3081 0.695838 16.9688 1.00121 16.7112C1.31294 16.4535 1.80599 16.3247 2.48034 16.3247H4.07399V16.0231C4.07399 15.5958 3.95312 15.2722 3.71137 15.0522C3.46962 14.826 3.11653 14.7129 2.65211 14.7129C2.33402 14.7129 2.02865 14.7663 1.736 14.8731C1.44336 14.9737 1.19206 15.1151 0.982123 15.2973L0.676753 14.7977C0.931228 14.5841 1.2366 14.4207 1.59286 14.3076C1.94913 14.1882 2.32448 14.1285 2.71891 14.1285ZM2.48034 18.6435C2.86206 18.6435 3.18969 18.5586 3.46325 18.389C3.73681 18.213 3.94039 17.9617 4.07399 17.6349V16.8243H2.49943C1.64058 16.8243 1.21115 17.1196 1.21115 17.7103C1.21115 17.9994 1.32248 18.2287 1.54515 18.3984C1.76781 18.5618 2.07955 18.6435 2.48034 18.6435Z" fill="#8C98B7"/>
<path d="M8.5981 16.9185H7.45296V19.1242H6.77542V14.1662H7.45296V16.3436H8.60764L10.3731 14.1662H11.1079L9.13249 16.5698L11.251 19.1242H10.4494L8.5981 16.9185Z" fill="#8C98B7"/>
<path d="M14.4629 19.1713C13.9667 19.1713 13.5213 19.0645 13.1269 18.8508C12.7388 18.6372 12.4334 18.3387 12.2108 17.9554C11.9881 17.5658 11.8768 17.1291 11.8768 16.6452C11.8768 16.1613 11.9881 15.7277 12.2108 15.3444C12.4334 14.9611 12.7388 14.6626 13.1269 14.449C13.5213 14.2353 13.9667 14.1285 14.4629 14.1285C14.8955 14.1285 15.2804 14.2133 15.6176 14.383C15.9611 14.5464 16.2315 14.7883 16.4287 15.1088L15.9229 15.4481C15.7575 15.203 15.5476 15.0208 15.2931 14.9014C15.0386 14.7757 14.7619 14.7129 14.4629 14.7129C14.1003 14.7129 13.7726 14.7946 13.48 14.958C13.1937 15.1151 12.9678 15.3413 12.8024 15.6366C12.6434 15.932 12.5639 16.2682 12.5639 16.6452C12.5639 17.0285 12.6434 17.3678 12.8024 17.6632C12.9678 17.9523 13.1937 18.1785 13.48 18.3419C13.7726 18.499 14.1003 18.5775 14.4629 18.5775C14.7619 18.5775 15.0386 18.5178 15.2931 18.3984C15.5476 18.279 15.7575 18.0968 15.9229 17.8517L16.4287 18.191C16.2315 18.5115 15.9611 18.7566 15.6176 18.9263C15.274 19.0896 14.8891 19.1713 14.4629 19.1713Z" fill="#8C98B7"/>
<path d="M22.2667 16.8526H18.0678C18.106 17.3678 18.3064 17.7857 18.669 18.1062C19.0316 18.4204 19.4897 18.5775 20.0432 18.5775C20.3549 18.5775 20.6412 18.5241 20.902 18.4173C21.1629 18.3041 21.3887 18.1408 21.5796 17.9271L21.9613 18.3607C21.7386 18.6246 21.4587 18.8257 21.1215 18.964C20.7907 19.1022 20.4249 19.1713 20.0241 19.1713C19.5088 19.1713 19.0507 19.0645 18.6499 18.8508C18.2555 18.6309 17.9469 18.3293 17.7243 17.946C17.5016 17.5626 17.3903 17.1291 17.3903 16.6452C17.3903 16.1613 17.4953 15.7277 17.7052 15.3444C17.9215 14.9611 18.2141 14.6626 18.5831 14.449C18.9585 14.2353 19.3784 14.1285 19.8428 14.1285C20.3072 14.1285 20.7239 14.2353 21.0929 14.449C21.4619 14.6626 21.7513 14.9611 21.9613 15.3444C22.1712 15.7215 22.2762 16.1551 22.2762 16.6452L22.2667 16.8526ZM19.8428 14.7035C19.3593 14.7035 18.9521 14.8574 18.6213 15.1653C18.2968 15.467 18.1124 15.8628 18.0678 16.353H21.6273C21.5828 15.8628 21.3951 15.467 21.0643 15.1653C20.7398 14.8574 20.3326 14.7035 19.8428 14.7035Z" fill="#8C98B7"/>
<path d="M26.0956 19.1713C25.5994 19.1713 25.1541 19.0645 24.7596 18.8508C24.3716 18.6372 24.0662 18.3387 23.8435 17.9554C23.6209 17.5658 23.5095 17.1291 23.5095 16.6452C23.5095 16.1613 23.6209 15.7277 23.8435 15.3444C24.0662 14.9611 24.3716 14.6626 24.7596 14.449C25.1541 14.2353 25.5994 14.1285 26.0956 14.1285C26.5282 14.1285 26.9131 14.2133 27.2503 14.383C27.5938 14.5464 27.8642 14.7883 28.0614 15.1088L27.5557 15.4481C27.3903 15.203 27.1803 15.0208 26.9258 14.9014C26.6714 14.7757 26.3946 14.7129 26.0956 14.7129C25.733 14.7129 25.4054 14.7946 25.1127 14.958C24.8264 15.1151 24.6006 15.3413 24.4352 15.6366C24.2761 15.932 24.1966 16.2682 24.1966 16.6452C24.1966 17.0285 24.2761 17.3678 24.4352 17.6632C24.6006 17.9523 24.8264 18.1785 25.1127 18.3419C25.4054 18.499 25.733 18.5775 26.0956 18.5775C26.3946 18.5775 26.6714 18.5178 26.9258 18.3984C27.1803 18.279 27.3903 18.0968 27.5557 17.8517L28.0614 18.191C27.8642 18.5115 27.5938 18.7566 27.2503 18.9263C26.9068 19.0896 26.5219 19.1713 26.0956 19.1713Z" fill="#8C98B7"/>
<path d="M31.6091 19.1713C31.1129 19.1713 30.6676 19.0645 30.2731 18.8508C29.8851 18.6372 29.5797 18.3387 29.357 17.9554C29.1344 17.5658 29.023 17.1291 29.023 16.6452C29.023 16.1613 29.1344 15.7277 29.357 15.3444C29.5797 14.9611 29.8851 14.6626 30.2731 14.449C30.6676 14.2353 31.1129 14.1285 31.6091 14.1285C32.0417 14.1285 32.4266 14.2133 32.7638 14.383C33.1073 14.5464 33.3777 14.7883 33.5749 15.1088L33.0692 15.4481C32.9038 15.203 32.6938 15.0208 32.4393 14.9014C32.1849 14.7757 31.9081 14.7129 31.6091 14.7129C31.2465 14.7129 30.9189 14.7946 30.6262 14.958C30.3399 15.1151 30.1141 15.3413 29.9487 15.6366C29.7896 15.932 29.7101 16.2682 29.7101 16.6452C29.7101 17.0285 29.7896 17.3678 29.9487 17.6632C30.1141 17.9523 30.3399 18.1785 30.6262 18.3419C30.9189 18.499 31.2465 18.5775 31.6091 18.5775C31.9081 18.5775 32.1849 18.5178 32.4393 18.3984C32.6938 18.279 32.9038 18.0968 33.0692 17.8517L33.5749 18.191C33.3777 18.5115 33.1073 18.7566 32.7638 18.9263C32.4203 19.0896 32.0354 19.1713 31.6091 19.1713Z" fill="#8C98B7"/>
<path d="M39.2982 14.1662L36.7884 19.718C36.5848 20.183 36.3494 20.5129 36.0822 20.7077C35.815 20.9025 35.4938 21 35.1184 21C34.8767 21 34.6508 20.9622 34.4409 20.8868C34.2309 20.8114 34.0496 20.6983 33.8969 20.5475L34.2118 20.0479C34.4663 20.2993 34.7717 20.425 35.1279 20.425C35.357 20.425 35.551 20.3621 35.7101 20.2365C35.8755 20.1108 36.0282 19.8971 36.1681 19.5955L36.3876 19.1148L34.145 14.1662H34.8512L36.7407 18.3796L38.6302 14.1662H39.2982Z" fill="#8C98B7"/>
<path d="M42.1521 14.1285C42.8074 14.1285 43.31 14.2919 43.6599 14.6186C44.0098 14.9391 44.1847 15.4167 44.1847 16.0514V19.1242H43.5358V18.3513C43.3831 18.6089 43.1573 18.81 42.8583 18.9545C42.5656 19.0991 42.2157 19.1713 41.8086 19.1713C41.2487 19.1713 40.8034 19.0394 40.4726 18.7754C40.1418 18.5115 39.9764 18.1628 39.9764 17.7292C39.9764 17.3081 40.129 16.9688 40.4344 16.7112C40.7461 16.4535 41.2392 16.3247 41.9135 16.3247H43.5072V16.0231C43.5072 15.5958 43.3863 15.2722 43.1446 15.0522C42.9028 14.826 42.5497 14.7129 42.0853 14.7129C41.7672 14.7129 41.4619 14.7663 41.1692 14.8731C40.8766 14.9737 40.6253 15.1151 40.4153 15.2973L40.11 14.7977C40.3644 14.5841 40.6698 14.4207 41.0261 14.3076C41.3823 14.1882 41.7577 14.1285 42.1521 14.1285ZM41.9135 18.6435C42.2953 18.6435 42.6229 18.5586 42.8965 18.389C43.17 18.213 43.3736 17.9617 43.5072 17.6349V16.8243H41.9326C41.0738 16.8243 40.6444 17.1196 40.6444 17.7103C40.6444 17.9994 40.7557 18.2287 40.9784 18.3984C41.201 18.5618 41.5127 18.6435 41.9135 18.6435Z" fill="#8C98B7"/>
<path d="M48.7947 14.1285C49.2655 14.1285 49.6918 14.2353 50.0735 14.449C50.4552 14.6563 50.7542 14.9517 50.9705 15.335C51.1868 15.7183 51.2949 16.1551 51.2949 16.6452C51.2949 17.1416 51.1868 17.5815 50.9705 17.9648C50.7542 18.3481 50.4552 18.6466 50.0735 18.8603C49.6981 19.0676 49.2719 19.1713 48.7947 19.1713C48.3876 19.1713 48.0186 19.0896 47.6878 18.9263C47.3633 18.7566 47.0961 18.5115 46.8862 18.191V20.9528H46.2086V14.1662H46.8575V15.1465C47.0611 14.8197 47.3283 14.5684 47.6591 14.3924C47.9963 14.2165 48.3748 14.1285 48.7947 14.1285ZM48.747 18.5775C49.0969 18.5775 49.415 18.499 49.7013 18.3419C49.9876 18.1785 50.2102 17.9491 50.3693 17.6538C50.5347 17.3584 50.6174 17.0222 50.6174 16.6452C50.6174 16.2682 50.5347 15.9351 50.3693 15.6461C50.2102 15.3507 49.9876 15.1213 49.7013 14.958C49.415 14.7946 49.0969 14.7129 48.747 14.7129C48.3908 14.7129 48.0695 14.7946 47.7832 14.958C47.5033 15.1213 47.2806 15.3507 47.1152 15.6461C46.9561 15.9351 46.8766 16.2682 46.8766 16.6452C46.8766 17.0222 46.9561 17.3584 47.1152 17.6538C47.2806 17.9491 47.5033 18.1785 47.7832 18.3419C48.0695 18.499 48.3908 18.5775 48.747 18.5775Z" fill="#8C98B7"/>
<path d="M55.0798 15.9194C55.7097 15.9257 56.19 16.0639 56.5208 16.3341C56.8516 16.6044 57.017 16.994 57.017 17.503C57.017 18.0308 56.8389 18.4361 56.4826 18.7189C56.1264 19.0017 55.6174 19.1399 54.9558 19.1336L52.9709 19.1242V14.1662H53.6484V15.9006L55.0798 15.9194ZM57.8568 14.1662H58.5343V19.1242H57.8568V14.1662ZM54.9176 18.6246C55.382 18.6309 55.7319 18.5398 55.9673 18.3513C56.2091 18.1565 56.33 17.8737 56.33 17.503C56.33 17.1385 56.2123 16.8683 55.9769 16.6923C55.7415 16.5164 55.3884 16.4253 54.9176 16.419L53.6484 16.4001V18.6058L54.9176 18.6246Z" fill="#8C98B7"/>
<path d="M63.4015 14.1662H64.079V16.3624H67.2377V14.1662H67.9152V19.1242H67.2377V16.9374H64.079V19.1242H63.4015V14.1662Z" fill="#8C98B7"/>
<path d="M71.7885 14.1285C72.4437 14.1285 72.9463 14.2919 73.2962 14.6186C73.6461 14.9391 73.8211 15.4167 73.8211 16.0514V19.1242H73.1722V18.3513C73.0195 18.6089 72.7936 18.81 72.4946 18.9545C72.202 19.0991 71.8521 19.1713 71.4449 19.1713C70.8851 19.1713 70.4397 19.0394 70.1089 18.7754C69.7781 18.5115 69.6127 18.1628 69.6127 17.7292C69.6127 17.3081 69.7654 16.9688 70.0707 16.7112C70.3825 16.4535 70.8755 16.3247 71.5499 16.3247H73.1435V16.0231C73.1435 15.5958 73.0227 15.2722 72.7809 15.0522C72.5392 14.826 72.1861 14.7129 71.7217 14.7129C71.4036 14.7129 71.0982 14.7663 70.8055 14.8731C70.5129 14.9737 70.2616 15.1151 70.0517 15.2973L69.7463 14.7977C70.0008 14.5841 70.3061 14.4207 70.6624 14.3076C71.0187 14.1882 71.394 14.1285 71.7885 14.1285ZM71.5499 18.6435C71.9316 18.6435 72.2592 18.5586 72.5328 18.389C72.8064 18.213 73.0099 17.9617 73.1435 17.6349V16.8243H71.569C70.7101 16.8243 70.2807 17.1196 70.2807 17.7103C70.2807 17.9994 70.392 18.2287 70.6147 18.3984C70.8374 18.5618 71.1491 18.6435 71.5499 18.6435Z" fill="#8C98B7"/>
<path d="M80.6621 19.1713C80.1659 19.1713 79.7206 19.0645 79.3261 18.8508C78.9381 18.6372 78.6327 18.3387 78.41 17.9554C78.1874 17.5658 78.076 17.1291 78.076 16.6452C78.076 16.1613 78.1874 15.7277 78.41 15.3444C78.6327 14.9611 78.9381 14.6626 79.3261 14.449C79.7206 14.2353 80.1659 14.1285 80.6621 14.1285C81.0947 14.1285 81.4796 14.2133 81.8168 14.383C82.1603 14.5464 82.4307 14.7883 82.6279 15.1088L82.1222 15.4481C81.9568 15.203 81.7468 15.0208 81.4924 14.9014C81.2379 14.7757 80.9611 14.7129 80.6621 14.7129C80.2995 14.7129 79.9719 14.7946 79.6792 14.958C79.3929 15.1151 79.1671 15.3413 79.0017 15.6366C78.8426 15.932 78.7631 16.2682 78.7631 16.6452C78.7631 17.0285 78.8426 17.3678 79.0017 17.6632C79.1671 17.9523 79.3929 18.1785 79.6792 18.3419C79.9719 18.499 80.2995 18.5775 80.6621 18.5775C80.9611 18.5775 81.2379 18.5178 81.4924 18.3984C81.7468 18.279 81.9568 18.0968 82.1222 17.8517L82.6279 18.191C82.4307 18.5115 82.1603 18.7566 81.8168 18.9263C81.4733 19.0896 81.0884 19.1713 80.6621 19.1713Z" fill="#8C98B7"/>
<path d="M89.7713 14.1662V19.1242H89.151V15.203L87.1184 18.5209H86.813L84.7804 15.1936V19.1242H84.1601V14.1662H84.8472L86.9752 17.7386L89.1414 14.1662H89.7713Z" fill="#8C98B7"/>
<path d="M93.6467 14.1285C94.302 14.1285 94.8046 14.2919 95.1545 14.6186C95.5044 14.9391 95.6794 15.4167 95.6794 16.0514V19.1242H95.0304V18.3513C94.8778 18.6089 94.6519 18.81 94.3529 18.9545C94.0603 19.0991 93.7104 19.1713 93.3032 19.1713C92.7434 19.1713 92.298 19.0394 91.9672 18.7754C91.6364 18.5115 91.471 18.1628 91.471 17.7292C91.471 17.3081 91.6237 16.9688 91.929 16.7112C92.2408 16.4535 92.7338 16.3247 93.4082 16.3247H95.0018V16.0231C95.0018 15.5958 94.8809 15.2722 94.6392 15.0522C94.3974 14.826 94.0444 14.7129 93.5799 14.7129C93.2618 14.7129 92.9565 14.7663 92.6638 14.8731C92.3712 14.9737 92.1199 15.1151 91.91 15.2973L91.6046 14.7977C91.8591 14.5841 92.1644 14.4207 92.5207 14.3076C92.877 14.1882 93.2523 14.1285 93.6467 14.1285ZM93.4082 18.6435C93.7899 18.6435 94.1175 18.5586 94.3911 18.389C94.6646 18.213 94.8682 17.9617 95.0018 17.6349V16.8243H93.4273C92.5684 16.8243 92.139 17.1196 92.139 17.7103C92.139 17.9994 92.2503 18.2287 92.473 18.3984C92.6956 18.5618 93.0074 18.6435 93.4082 18.6435Z" fill="#8C98B7"/>
<path d="M100.289 14.1285C100.76 14.1285 101.186 14.2353 101.568 14.449C101.95 14.6563 102.249 14.9517 102.465 15.335C102.681 15.7183 102.79 16.1551 102.79 16.6452C102.79 17.1416 102.681 17.5815 102.465 17.9648C102.249 18.3481 101.95 18.6466 101.568 18.8603C101.193 19.0676 100.766 19.1713 100.289 19.1713C99.8822 19.1713 99.5132 19.0896 99.1824 18.9263C98.8579 18.7566 98.5907 18.5115 98.3808 18.191V20.9528H97.7032V14.1662H98.3522V15.1465C98.5557 14.8197 98.8229 14.5684 99.1538 14.3924C99.4909 14.2165 99.8695 14.1285 100.289 14.1285ZM100.242 18.5775C100.592 18.5775 100.91 18.499 101.196 18.3419C101.482 18.1785 101.705 17.9491 101.864 17.6538C102.029 17.3584 102.112 17.0222 102.112 16.6452C102.112 16.2682 102.029 15.9351 101.864 15.6461C101.705 15.3507 101.482 15.1213 101.196 14.958C100.91 14.7946 100.592 14.7129 100.242 14.7129C99.8854 14.7129 99.5641 14.7946 99.2778 14.958C98.9979 15.1213 98.7752 15.3507 98.6098 15.6461C98.4508 15.9351 98.3712 16.2682 98.3712 16.6452C98.3712 17.0222 98.4508 17.3584 98.6098 17.6538C98.7752 17.9491 98.9979 18.1785 99.2778 18.3419C99.5641 18.499 99.8854 18.5775 100.242 18.5775Z" fill="#8C98B7"/>
<path d="M107.81 14.76H105.911V19.1242H105.233V14.76H103.334V14.1662H107.81V14.76Z" fill="#8C98B7"/>
<path d="M114.837 16.6358C114.837 17.4087 114.579 18.0151 114.064 18.455C113.548 18.8948 112.82 19.1336 111.878 19.1713V20.9528H111.22V19.1808C110.285 19.1431 109.559 18.9043 109.044 18.4644C108.535 18.0182 108.281 17.4087 108.281 16.6358C108.281 15.8691 108.535 15.269 109.044 14.8354C109.559 14.4018 110.285 14.1662 111.22 14.1285V12.1302H111.878V14.1285C112.82 14.1725 113.548 14.4113 114.064 14.8449C114.579 15.2784 114.837 15.8754 114.837 16.6358ZM108.949 16.6358C108.949 17.2265 109.139 17.6883 109.521 18.0214C109.909 18.3544 110.475 18.5429 111.22 18.5869V14.7223C110.482 14.76 109.919 14.9454 109.531 15.2784C109.143 15.6052 108.949 16.0577 108.949 16.6358ZM111.878 18.5869C112.623 18.5492 113.189 18.3638 113.577 18.0308C113.971 17.6978 114.169 17.2327 114.169 16.6358C114.169 16.0514 113.971 15.5958 113.577 15.269C113.189 14.9423 112.623 14.76 111.878 14.7223V18.5869Z" fill="#8C98B7"/>
<path d="M118.56 19.1713C118.077 19.1713 117.641 19.0645 117.253 18.8508C116.865 18.6309 116.56 18.3293 116.337 17.946C116.114 17.5626 116.003 17.1291 116.003 16.6452C116.003 16.1613 116.114 15.7277 116.337 15.3444C116.56 14.9611 116.865 14.6626 117.253 14.449C117.641 14.2353 118.077 14.1285 118.56 14.1285C119.044 14.1285 119.48 14.2353 119.868 14.449C120.256 14.6626 120.558 14.9611 120.774 15.3444C120.997 15.7277 121.108 16.1613 121.108 16.6452C121.108 17.1291 120.997 17.5626 120.774 17.946C120.558 18.3293 120.256 18.6309 119.868 18.8508C119.48 19.0645 119.044 19.1713 118.56 19.1713ZM118.56 18.5775C118.917 18.5775 119.235 18.499 119.515 18.3419C119.801 18.1785 120.024 17.9491 120.183 17.6538C120.342 17.3584 120.421 17.0222 120.421 16.6452C120.421 16.2682 120.342 15.932 120.183 15.6366C120.024 15.3413 119.801 15.1151 119.515 14.958C119.235 14.7946 118.917 14.7129 118.56 14.7129C118.204 14.7129 117.883 14.7946 117.597 14.958C117.317 15.1151 117.094 15.3413 116.929 15.6366C116.77 15.932 116.69 16.2682 116.69 16.6452C116.69 17.0222 116.77 17.3584 116.929 17.6538C117.094 17.9491 117.317 18.1785 117.597 18.3419C117.883 18.499 118.204 18.5775 118.56 18.5775Z" fill="#8C98B7"/>
<path d="M122.777 14.1662H123.454V16.3624H126.613V14.1662H127.29V19.1242H126.613V16.9374H123.454V19.1242H122.777V14.1662Z" fill="#8C98B7"/>
<path d="M131.545 15.9194C132.175 15.9257 132.656 16.0639 132.986 16.3341C133.317 16.6044 133.483 16.994 133.483 17.503C133.483 18.0308 133.304 18.4361 132.948 18.7189C132.592 19.0017 132.083 19.1399 131.421 19.1336L129.436 19.1242V14.1662H130.114V15.9006L131.545 15.9194ZM134.322 14.1662H135V19.1242H134.322V14.1662ZM131.383 18.6246C131.848 18.6309 132.197 18.5398 132.433 18.3513C132.675 18.1565 132.795 17.8737 132.795 17.503C132.795 17.1385 132.678 16.8683 132.442 16.6923C132.207 16.5164 131.854 16.4253 131.383 16.419L130.114 16.4001V18.6058L131.383 18.6246Z" fill="#8C98B7"/>
</svg>
